<mxfile host="app.diagrams.net" modified="2024-01-26T05:36:19.433Z" agent="Mozilla/5.0 (Windows NT 10.0; Win64; x64) AppleWebKit/537.36 (KHTML, like Gecko) Chrome/120.0.0.0 Safari/537.36" version="21.5.0" etag="OE5xfaM1VMf_GhVjwkjJ" type="github">
  <diagram name="Page-1" id="ryGtp6P1I9KAt4M1AO9u">
    <mxGraphModel>
      <root>
        <mxCell id="0" />
        <mxCell id="1" parent="0" />
      </root>
    </mxGraphModel>
  </diagram>
</mxfile>
